<?xml version="1.0" encoding="utf-8"?>
<!-- Generator: Adobe Illustrator 16.0.0, SVG Export Plug-In . SVG Version: 6.00 Build 0)  -->
<!DOCTYPE svg PUBLIC "-//W3C//DTD SVG 1.1//EN" "http://www.w3.org/Graphics/SVG/1.1/DTD/svg11.dtd">
<svg version="1.1" id="Your_Icon" xmlns="http://www.w3.org/2000/svg" xmlns:xlink="http://www.w3.org/1999/xlink" x="0px" y="0px"
	 width="90px" height="73.8px" viewBox="5 22.1 90 73.8" enable-background="new 5 22.1 90 73.8" xml:space="preserve">
<path d="M95,46.85c0-2.723-2.228-4.95-4.95-4.95h-5.919l-4.292-11.16c-1.067-2.772-4.275-5.708-7.132-6.524
	C72.707,24.217,65.3,22.1,50,22.1s-22.708,2.117-22.708,2.117c-2.855,0.816-6.064,3.751-7.13,6.524L15.87,41.9H9.95
	C7.228,41.9,5,44.127,5,46.85c0,2.722,2.228,4.95,4.95,4.95h2.111l-1.523,3.961C9.472,58.53,8.6,63.23,8.6,66.2V89.6
	c0,3.465,2.835,6.301,6.3,6.301c3.465,0,6.3-2.836,6.3-6.301V86h57.6v3.6c0,3.465,2.836,6.301,6.3,6.301
	c3.465,0,6.301-2.836,6.301-6.301V66.2c0-2.97-0.874-7.67-1.939-10.439L87.938,51.8h2.112C92.772,51.8,95,49.572,95,46.85z
	 M20.922,48.312l5.056-13.722C26.32,33.66,27.41,32.9,28.4,32.9h43.2c0.99,0,2.082,0.76,2.423,1.688l5.056,13.722
	C79.419,49.24,78.89,50,77.9,50H22.1C21.11,50,20.58,49.24,20.922,48.312z M20.75,70.7c-2.734,0-4.95-2.219-4.95-4.95
	s2.216-4.95,4.95-4.95c2.733,0,4.95,2.219,4.95,4.95S23.483,70.7,20.75,70.7z M79.25,70.7c-2.734,0-4.95-2.216-4.95-4.95
	s2.216-4.95,4.95-4.95s4.95,2.216,4.95,4.95S81.984,70.7,79.25,70.7z"/>
</svg>
